<svg xmlns="http://www.w3.org/2000/svg" width="220" height="48">
  <g fill="none" fill-rule="evenodd">
    <ellipse cx="54.076" cy="23.97" fill="#82D318" rx="23.951" ry="23.97"/>
    <path fill="#000" fill-rule="nonzero" d="M57.307 23.544l-1.12-1.666a37.884 37.884 0 00-6.927-7.438 27.666 27.666 0 00-15.756-6.585 28.708 28.708 0 00-20.215 7.08 37.545 37.545 0 00-4.658 4.642c-.01.01-.02.02-.03.02-.089.06-.218.04-.277-.05a40.276 40.276 0 01-3.736-8.916l-.01-.05a2.478 2.478 0 00-1.427-1.417 2.057 2.057 0 00-1.694.05 2.637 2.637 0 00-1.328 2.854l.01.03a44.732 44.732 0 005.073 11.554.57.57 0 010 .615A45.404 45.404 0 00.119 35.85l-.01.05v.05c0 1.03.595 1.963 1.526 2.39.278.119.585.188.882.198a2.472 2.472 0 002.002-1.11l.03-.05.02-.05a40.016 40.016 0 013.745-8.946c.01-.01.01-.02.02-.03a.203.203 0 01.287 0 37.502 37.502 0 004.658 4.662 29.152 29.152 0 0018.52 7.14c.556 0 1.12-.02 1.685-.06A27.57 27.57 0 0049.24 33.51a37.885 37.885 0 006.917-7.438l1.11-1.666a.703.703 0 00.04-.863zm-5.827.863c-2.765 3.47-9.157 10.056-18.244 10.68-8.026.556-15.934-3.63-21.652-10.75a.569.569 0 010-.714c5.718-7.13 13.626-11.306 21.643-10.77 9.096.635 15.498 7.24 18.253 10.71a.674.674 0 010 .844z"/>
    <path fill="#000" d="M42.77 21.5a2.48 2.48 0 012.17 2.758 2.478 2.478 0 01-2.755 2.172 2.486 2.486 0 01-2.19-2.47 2.49 2.49 0 012.487-2.489c.09.02.188.02.287.03z"/>
    <g fill="#000">
      <path d="M185.169 14.192c.693 0 1.278-.199 1.714-.595.445-.407.673-.933.673-1.577 0-.645-.228-1.17-.673-1.567-.436-.387-1.011-.585-1.715-.585-.713 0-1.298.198-1.724.585-.436.396-.654.922-.654 1.567 0 .644.218 1.18.654 1.577.426.396 1.01.595 1.724.595z"/>
      <path d="M185.347 16.73h-8.394v-.486c0-.872.188-1.547.575-1.993.377-.436 1-.704 1.853-.773l.654-.06c.456-.04.823-.198 1.1-.476.277-.278.416-.655.416-1.14 0-.695-.307-1.528-1.764-1.528-.208 0-.366.01-.456.03l-.682.06c-1.814.158-3.25.803-4.251 1.914-1.002 1.1-1.509 2.598-1.519 4.452h-1.277c-1.526 0-1.853.863-1.853 1.588s.317 1.587 1.853 1.587h1.278v9.897c0 .635.199 1.121.605 1.448.386.328.882.486 1.457.486.574 0 1.06-.168 1.446-.496.387-.337.585-.823.585-1.447v-9.898h6.154v9.898c0 .624.198 1.12.604 1.467.387.338.882.506 1.457.506.575 0 1.06-.168 1.447-.506.386-.347.584-.833.584-1.467V18.317c-.02-.724-.346-1.587-1.872-1.587zm16.539 8.321c-.347-.565-.912-1.031-1.695-1.408-.763-.357-1.813-.685-3.151-.962-1.22-.248-2.042-.506-2.458-.744-.376-.218-.555-.536-.555-.952a1.2 1.2 0 01.555-1.051c.387-.268.932-.407 1.615-.407.585 0 1.08.07 1.477.208.406.14.892.367 1.447.655.317.178.584.317.802.407.228.099.466.148.714.148.376 0 .694-.158.951-.476.248-.297.367-.674.367-1.11 0-.724-.347-1.3-1.04-1.736a7.603 7.603 0 00-2.121-.932 9.493 9.493 0 00-2.448-.318c-1.17 0-2.22.199-3.141.595-.922.397-1.665.962-2.2 1.696a4.092 4.092 0 00-.803 2.47c0 1.2.407 2.152 1.21 2.846.782.674 2.08 1.19 3.854 1.547.971.218 1.704.407 2.18.575.446.159.763.328.932.496.148.159.227.377.227.665 0 .426-.198.743-.594.981-.426.258-1.05.387-1.833.387-.783 0-1.437-.08-1.943-.228a13.26 13.26 0 01-1.694-.664c-.624-.338-1.11-.496-1.487-.496a1.2 1.2 0 00-.941.436c-.248.278-.377.645-.377 1.091 0 .764.347 1.359 1.041 1.765 1.348.863 3.131 1.3 5.311 1.3 1.883 0 3.42-.417 4.569-1.25 1.16-.843 1.754-1.984 1.754-3.382-.01-.863-.189-1.587-.525-2.152zm11.633-8.678c-1.07 0-2.041.209-2.883.625a5.025 5.025 0 00-1.685 1.33v-6.299c0-.566-.188-1.032-.565-1.36-.367-.326-.862-.495-1.457-.495-.604 0-1.1.179-1.476.526-.387.357-.585.823-.585 1.388v17.703c0 .605.189 1.09.545 1.447.357.348.862.526 1.487.526.624 0 1.12-.178 1.496-.526.377-.357.565-.842.565-1.447v-6.586c0-1.07.307-1.924.912-2.558.594-.625 1.417-.942 2.417-.942.843 0 1.467.218 1.854.654.386.446.584 1.17.584 2.162v7.28c0 .604.189 1.09.565 1.447.367.348.872.526 1.496.526.625 0 1.12-.178 1.487-.526.366-.357.545-.833.545-1.448v-7.279c-.02-4.076-1.794-6.149-5.302-6.149zM96.608 25.051c-.347-.565-.912-1.031-1.695-1.408-.763-.357-1.813-.685-3.151-.962-1.219-.248-2.041-.506-2.458-.744-.376-.218-.554-.536-.554-.952 0-.446.178-.793.554-1.051.387-.268.932-.407 1.616-.407.584 0 1.08.07 1.476.208.407.14.892.367 1.447.655.317.178.585.317.803.407.228.099.465.148.713.148.377 0 .694-.158.951-.476.248-.297.367-.674.367-1.11 0-.724-.347-1.3-1.04-1.736a7.603 7.603 0 00-2.121-.932 9.488 9.488 0 00-2.448-.318c-1.169 0-2.22.199-3.14.595-.923.397-1.666.962-2.2 1.696a4.086 4.086 0 00-.804 2.47c0 1.2.407 2.152 1.21 2.846.782.674 2.08 1.19 3.854 1.547.971.218 1.705.407 2.18.575.446.159.763.328.932.496.148.159.228.377.228.665 0 .426-.198.743-.595.981-.426.258-1.05.387-1.833.387-.783 0-1.437-.08-1.942-.228a13.27 13.27 0 01-1.695-.664c-.624-.338-1.11-.496-1.486-.496a1.2 1.2 0 00-.942.436c-.247.278-.376.645-.376 1.091 0 .764.347 1.359 1.04 1.765 1.348.863 3.132 1.3 5.312 1.3 1.883 0 3.418-.417 4.568-1.25 1.16-.843 1.754-1.984 1.754-3.382 0-.863-.178-1.587-.525-2.152zm11.089 3.58l-.803-.06c-1.229-.089-1.833-.793-1.833-2.141v-6.526h2.318c.575 0 1.031-.139 1.348-.397.327-.277.496-.674.496-1.19 0-.516-.169-.912-.496-1.19-.317-.268-.773-.397-1.348-.397h-2.318v-2.529c0-.585-.189-1.06-.565-1.418-.367-.347-.862-.525-1.467-.525-.624 0-1.12.178-1.496.525-.377.357-.565.833-.565 1.418v2.53H99.69c-.575 0-1.031.138-1.348.396-.327.278-.496.674-.496 1.19 0 .516.169.913.496 1.19.317.268.773.397 1.348.397h1.278v6.258c0 3.421 1.734 5.276 5.153 5.524l.803.06c.099.01.198.01.287.01.614 0 1.11-.12 1.467-.348.445-.288.663-.704.663-1.25.01-.654-.277-1.447-1.644-1.527z"/>
      <path fill-rule="nonzero" d="M122.363 17.93c-1.011-1.031-2.567-1.557-4.618-1.557-.942 0-1.903.11-2.864.328-.971.218-1.814.525-2.517.902-.416.228-.724.486-.912.754a1.713 1.713 0 00-.287.982c0 .466.129.843.386 1.14.268.298.605.446 1.021.446.268 0 .664-.128 1.199-.396.803-.308 1.496-.556 2.081-.714a6.36 6.36 0 011.695-.248c.862 0 1.496.198 1.863.605.376.406.564 1.07.564 1.983v.486h-.545c-2.15 0-3.864.139-5.103.417-1.259.287-2.18.753-2.755 1.388-.575.645-.862 1.537-.862 2.648 0 .883.238 1.696.713 2.42a4.836 4.836 0 001.943 1.696c.812.406 1.724.615 2.715.615.981 0 1.853-.228 2.596-.685a4.169 4.169 0 001.288-1.21c.02.516.209.943.545 1.28.357.347.833.525 1.398.525.604 0 1.09-.168 1.437-.515.356-.347.535-.814.535-1.399v-7.21c.01-2.072-.506-3.65-1.516-4.68zm-2.389 7.071v.427c0 .992-.297 1.805-.882 2.43-.584.624-1.327.932-2.269.932-.604 0-1.1-.179-1.506-.555-.406-.367-.605-.834-.605-1.409 0-.456.14-.813.417-1.07.287-.269.773-.457 1.466-.576.714-.119 1.744-.179 3.042-.179h.337z"/>
      <path d="M140.438 28.383l-4.985-4.472 4.489-4.176c.406-.406.614-.872.614-1.378 0-.506-.188-.952-.564-1.32-.377-.376-.813-.564-1.318-.564-.506 0-.962.198-1.348.585l-5.995 5.752V12.138c0-.635-.199-1.121-.605-1.448-.386-.328-.882-.486-1.457-.486-.574 0-1.06.168-1.446.486-.387.337-.585.823-.585 1.448V29.81c0 .625.198 1.121.585 1.448.376.328.862.496 1.446.496.575 0 1.07-.168 1.457-.486.397-.337.605-.823.605-1.448v-4.621l6.59 5.97c.406.387.862.585 1.347.585.486 0 .922-.198 1.279-.595.356-.387.535-.843.535-1.349.01-.535-.208-1.011-.644-1.428z"/>
      <path fill-rule="nonzero" d="M154.826 27.243c-.307 0-.763.158-1.377.486-.605.268-1.15.486-1.625.644-.456.15-1.001.228-1.606.228-1.179 0-2.09-.307-2.705-.902-.575-.575-.942-1.468-1.07-2.668h8.512c.604 0 1.318-.258 1.318-1.468 0-1.447-.278-2.717-.823-3.788a6.108 6.108 0 00-2.318-2.51c-.991-.584-2.17-.882-3.498-.882-1.388 0-2.656.328-3.756.972a6.64 6.64 0 00-2.577 2.747c-.604 1.17-.911 2.52-.911 4.027 0 2.37.703 4.274 2.1 5.643 1.388 1.368 3.3 2.072 5.669 2.072.783 0 1.615-.119 2.477-.347.862-.228 1.645-.535 2.319-.922.793-.446 1.19-1.021 1.19-1.706 0-.476-.12-.872-.358-1.16-.238-.317-.565-.466-.96-.466zm-2.12-4.592h-6.263c.138-1.031.465-1.835 1-2.39.565-.585 1.328-.883 2.27-.883.931 0 1.645.288 2.16.863.486.546.763 1.359.832 2.41z"/>
      <path d="M163.893 21.501a2.476 2.476 0 012.17 2.757 2.477 2.477 0 01-2.754 2.172 2.487 2.487 0 01-2.19-2.47 2.49 2.49 0 012.487-2.49c.09.02.188.02.287.03z"/>
    </g>
  </g>
</svg>
